<svg xmlns="http://www.w3.org/2000/svg"
 xmlns:xlink="http://www.w3.org/1999/xlink"
 width="7px" height="12px"  viewBox="0 0 7 12">
<path fill-rule="evenodd"  fill="#c7b299"
 d="M1.951294,9.81543 C1.951294,9.81543 5.7854004,6.3476562 5.7854004,6.3476562 C5.998657,6.15625 5.998657,5.841797 5.7854004,5.6484375 C5.7854004,5.6484375 5.7647705,5.6367188 5.7647705,5.6367188 C5.7647705,5.6367188 1.951294,2.1777344 1.951294,2.1777344 C1.7369385,1.9848633 1.3880615,1.9848633 1.1738281,2.1777344 C1.1738281,2.1777344 1.1697998,2.1845703 1.1697998,2.1845703 C1.067627,2.2739258 1.0025635,2.3984375 1.0025635,2.538086 C1.0025635,2.538086 1.0025635,9.455566 1.0025635,9.455566 C1.0025635,9.597168 1.0706787,9.724121 1.1757812,9.813965 C1.1757812,9.813965 1.1738281,9.81543 1.1738281,9.81543 C1.3895264,10.008301 1.7369385,10.008301 1.951294,9.81543 Z"/>
</svg>